<svg xmlns="http://www.w3.org/2000/svg" xmlns:xlink="http://www.w3.org/1999/xlink" width="500" zoomAndPan="magnify" viewBox="0 0 375 374.999991" height="500" preserveAspectRatio="xMidYMid meet" version="1.0"><defs><g/><clipPath id="d1f9554913"><path d="M 50.722656 61 L 300 61 L 300 184 L 50.722656 184 Z M 50.722656 61 " clip-rule="nonzero"/></clipPath><clipPath id="d2cdc9c41c"><path d="M 151 40.359375 L 324.472656 40.359375 L 324.472656 213.609375 L 151 213.609375 Z M 151 40.359375 " clip-rule="nonzero"/></clipPath></defs><rect x="-37.5" width="450" fill="#ffffff" y="-37.499999" height="449.999989" fill-opacity="1"/><rect x="-37.5" width="450" fill="#ffffff" y="-37.499999" height="449.999989" fill-opacity="1"/><rect x="-37.5" width="450" fill="#ffffff" y="-37.499999" height="449.999989" fill-opacity="1"/><g clip-path="url(#d1f9554913)"><path fill="#202235" d="M 155.671875 169.039062 C 166.730469 164 176.335938 158.441406 184.203125 153.300781 C 199.25 143.464844 218.484375 125.171875 219.539062 123.710938 L 212.488281 119.007812 L 206.386719 114.933594 L 225.710938 114.179688 L 231.917969 113.933594 L 233.605469 107.964844 L 238.859375 89.375 L 245.550781 107.496094 L 247.699219 113.320312 L 253.910156 113.078125 L 273.234375 112.324219 L 258.042969 124.277344 L 253.164062 128.117188 L 255.3125 133.9375 L 262.003906 152.058594 L 245.925781 141.328125 L 240.761719 137.878906 L 235.878906 141.71875 L 220.691406 153.671875 L 223.300781 144.433594 L 225.941406 135.085938 L 226.269531 133.925781 C 207.777344 147.75 181.910156 161.066406 166.445312 165.992188 C 162.898438 167.121094 159.304688 168.136719 155.671875 169.039062 Z M 119.304688 183.191406 C 146.714844 182.121094 179.367188 175.164062 211.5 154.742188 L 205.308594 176.652344 L 241.171875 148.425781 L 279.132812 173.765625 L 263.335938 130.984375 L 299.199219 102.761719 L 253.574219 104.542969 L 237.777344 61.757812 L 225.375 105.644531 L 179.75 107.425781 L 206.164062 125.058594 C 188.78125 140.847656 145.171875 174.519531 87.398438 176.78125 C 75.722656 177.234375 63.457031 176.40625 50.722656 173.886719 C 50.722656 173.886719 79.476562 184.75 119.304688 183.191406 " fill-opacity="1" fill-rule="nonzero"/></g><g clip-path="url(#d2cdc9c41c)"><path fill="#202235" d="M 237.890625 40.515625 C 190.066406 40.515625 151.300781 79.230469 151.300781 126.984375 C 151.300781 136.03125 152.695312 144.746094 155.273438 152.941406 C 159.039062 151.066406 162.636719 149.128906 166.0625 147.160156 C 164.257812 140.742188 163.292969 133.976562 163.292969 126.984375 C 163.292969 85.84375 196.6875 52.488281 237.890625 52.488281 C 279.085938 52.488281 312.484375 85.84375 312.484375 126.984375 C 312.484375 168.128906 279.085938 201.484375 237.890625 201.484375 C 215.542969 201.484375 195.5 191.671875 181.828125 176.128906 C 177.851562 177.675781 173.828125 179.078125 169.753906 180.351562 C 185.605469 200.507812 210.230469 213.457031 237.890625 213.457031 C 285.707031 213.457031 324.472656 174.742188 324.472656 126.984375 C 324.472656 79.230469 285.707031 40.515625 237.890625 40.515625 " fill-opacity="1" fill-rule="nonzero"/></g><path fill="#202235" d="M 111.578125 115.4375 L 116.355469 130.125 L 131.820312 130.125 L 119.308594 139.199219 L 124.085938 153.886719 L 111.578125 144.8125 L 99.066406 153.886719 L 103.84375 139.199219 L 91.335938 130.125 L 106.800781 130.125 L 111.578125 115.4375 " fill-opacity="1" fill-rule="nonzero"/><path fill="#202235" d="M 133.828125 67.027344 L 137.953125 79.707031 L 151.300781 79.707031 L 140.503906 87.539062 L 144.628906 100.21875 L 133.828125 92.382812 L 123.027344 100.21875 L 127.15625 87.539062 L 116.355469 79.707031 L 129.703125 79.707031 L 133.828125 67.027344 " fill-opacity="1" fill-rule="nonzero"/><path fill="#202235" d="M 65.675781 144.203125 L 68.085938 151.601562 L 75.875 151.601562 L 69.574219 156.171875 L 71.980469 163.570312 L 65.675781 159 L 59.375 163.570312 L 61.78125 156.171875 L 55.480469 151.601562 L 63.269531 151.601562 L 65.675781 144.203125 " fill-opacity="1" fill-rule="nonzero"/><g fill="#202235" fill-opacity="1"><g transform="translate(25.894186, 290.753174)"><g><path d="M 3.8125 0 L 3.8125 -43.8125 L 13.0625 -43.8125 L 13.0625 -7.640625 L 31.84375 -7.640625 L 31.84375 0 Z M 3.8125 0 "/></g></g></g><g fill="#202235" fill-opacity="1"><g transform="translate(64.465454, 290.753174)"><g><path d="M 13.0625 -43.8125 L 13.0625 0 L 3.8125 0 L 3.8125 -43.8125 Z M 13.0625 -43.8125 "/></g></g></g><g fill="#202235" fill-opacity="1"><g transform="translate(85.757784, 290.753174)"><g><path d="M 2.140625 -36.171875 L 2.140625 -43.8125 L 38.109375 -43.8125 L 38.109375 -36.171875 L 24.703125 -36.171875 L 24.703125 0 L 15.546875 0 L 15.546875 -36.171875 Z M 2.140625 -36.171875 "/></g></g></g><g fill="#202235" fill-opacity="1"><g transform="translate(130.402357, 290.753174)"><g><path d="M 3.8125 0 L 3.8125 -43.8125 L 33.328125 -43.8125 L 33.328125 -36.171875 L 13.0625 -36.171875 L 13.0625 -25.734375 L 31.8125 -25.734375 L 31.8125 -18.09375 L 13.0625 -18.09375 L 13.0625 -7.640625 L 33.40625 -7.640625 L 33.40625 0 Z M 3.8125 0 "/></g></g></g><g fill="#202235" fill-opacity="1"><g transform="translate(171.689519, 290.753174)"><g><path d="M 27.578125 -31.203125 C 27.398438 -32.929688 26.660156 -34.269531 25.359375 -35.21875 C 24.054688 -36.175781 22.296875 -36.65625 20.078125 -36.65625 C 17.816406 -36.65625 16.078125 -36.191406 14.859375 -35.265625 C 13.648438 -34.335938 13.046875 -33.171875 13.046875 -31.765625 C 13.015625 -30.191406 13.6875 -29.003906 15.0625 -28.203125 C 16.445312 -27.398438 18.085938 -26.773438 19.984375 -26.328125 L 23.90625 -25.390625 C 26.445312 -24.816406 28.703125 -23.988281 30.671875 -22.90625 C 32.648438 -21.820312 34.207031 -20.425781 35.34375 -18.71875 C 36.476562 -17.019531 37.046875 -14.953125 37.046875 -12.515625 C 37.035156 -8.503906 35.535156 -5.3125 32.546875 -2.9375 C 29.554688 -0.5625 25.390625 0.625 20.046875 0.625 C 14.722656 0.625 10.476562 -0.585938 7.3125 -3.015625 C 4.144531 -5.441406 2.503906 -9.019531 2.390625 -13.75 L 11.359375 -13.75 C 11.515625 -11.550781 12.378906 -9.898438 13.953125 -8.796875 C 15.535156 -7.691406 17.53125 -7.140625 19.9375 -7.140625 C 22.289062 -7.140625 24.164062 -7.640625 25.5625 -8.640625 C 26.96875 -9.640625 27.679688 -10.9375 27.703125 -12.53125 C 27.679688 -14.019531 27.03125 -15.160156 25.75 -15.953125 C 24.46875 -16.753906 22.632812 -17.441406 20.25 -18.015625 L 15.484375 -19.203125 C 11.796875 -20.085938 8.878906 -21.492188 6.734375 -23.421875 C 4.597656 -25.347656 3.535156 -27.921875 3.546875 -31.140625 C 3.535156 -33.796875 4.242188 -36.117188 5.671875 -38.109375 C 7.109375 -40.097656 9.082031 -41.644531 11.59375 -42.75 C 14.101562 -43.851562 16.957031 -44.40625 20.15625 -44.40625 C 23.40625 -44.40625 26.242188 -43.847656 28.671875 -42.734375 C 31.097656 -41.617188 32.988281 -40.070312 34.34375 -38.09375 C 35.707031 -36.113281 36.410156 -33.816406 36.453125 -31.203125 Z M 27.578125 -31.203125 "/></g></g></g><g fill="#202235" fill-opacity="1"><g transform="translate(215.521458, 290.753174)"><g><path d="M 2.140625 -36.171875 L 2.140625 -43.8125 L 38.109375 -43.8125 L 38.109375 -36.171875 L 24.703125 -36.171875 L 24.703125 0 L 15.546875 0 L 15.546875 -36.171875 Z M 2.140625 -36.171875 "/></g></g></g><g fill="#202235" fill-opacity="1"><g transform="translate(260.166024, 290.753174)"><g><path d="M 11.359375 0 L 1.4375 0 L 16.5625 -43.8125 L 28.484375 -43.8125 L 43.59375 0 L 33.671875 0 L 30.421875 -9.984375 L 14.609375 -9.984375 Z M 16.96875 -17.21875 L 28.078125 -17.21875 L 22.6875 -33.796875 L 22.359375 -33.796875 Z M 16.96875 -17.21875 "/></g></g></g><g fill="#202235" fill-opacity="1"><g transform="translate(309.600809, 290.753174)"><g><path d="M 3.8125 0 L 3.8125 -43.8125 L 21.09375 -43.8125 C 26.070312 -43.8125 29.929688 -42.507812 32.671875 -39.90625 C 35.421875 -37.3125 36.796875 -33.84375 36.796875 -29.5 C 36.796875 -26.5 36.128906 -23.9375 34.796875 -21.8125 C 33.460938 -19.6875 31.546875 -18.09375 29.046875 -17.03125 L 38.359375 0 L 28.125 0 L 19.828125 -15.53125 L 13.0625 -15.53125 L 13.0625 0 Z M 13.0625 -22.96875 L 19.359375 -22.96875 C 24.617188 -22.96875 27.25 -25.144531 27.25 -29.5 C 27.25 -33.988281 24.601562 -36.234375 19.3125 -36.234375 L 13.0625 -36.234375 Z M 13.0625 -22.96875 "/></g></g></g><g fill="#202235" fill-opacity="1"><g transform="translate(73.171391, 328.205375)"><g><path d="M 2.421875 0 L 2.421875 -20.046875 L 14.453125 -20.046875 L 14.453125 -17.890625 L 4.859375 -17.890625 L 4.859375 -11.125 L 13.546875 -11.125 L 13.546875 -8.96875 L 4.859375 -8.96875 L 4.859375 0 Z M 2.421875 0 "/></g></g></g><g fill="#202235" fill-opacity="1"><g transform="translate(95.833306, 328.205375)"><g><path d="M 2.421875 0 L 2.421875 -20.046875 L 9.203125 -20.046875 C 10.765625 -20.046875 12.046875 -19.78125 13.046875 -19.25 C 14.054688 -18.71875 14.800781 -17.988281 15.28125 -17.0625 C 15.769531 -16.132812 16.015625 -15.082031 16.015625 -13.90625 C 16.015625 -12.570312 15.707031 -11.410156 15.09375 -10.421875 C 14.488281 -9.429688 13.546875 -8.71875 12.265625 -8.28125 L 16.796875 0 L 13.984375 0 L 9.75 -7.84375 C 9.582031 -7.832031 9.410156 -7.828125 9.234375 -7.828125 L 4.859375 -7.828125 L 4.859375 0 Z M 4.859375 -10.015625 L 9.15625 -10.015625 C 10.757812 -10.015625 11.90625 -10.359375 12.59375 -11.046875 C 13.28125 -11.742188 13.625 -12.695312 13.625 -13.90625 C 13.625 -15.101562 13.28125 -16.066406 12.59375 -16.796875 C 11.90625 -17.523438 10.75 -17.890625 9.125 -17.890625 L 4.859375 -17.890625 Z M 4.859375 -10.015625 "/></g></g></g><g fill="#202235" fill-opacity="1"><g transform="translate(119.942554, 328.205375)"><g><path d="M 3.25 0 L 0.703125 0 L 8.0625 -20.046875 L 10.578125 -20.046875 L 17.9375 0 L 15.390625 0 L 13.375 -5.671875 L 5.265625 -5.671875 Z M 6.03125 -7.828125 L 12.609375 -7.828125 L 9.390625 -16.875 L 9.234375 -16.875 Z M 6.03125 -7.828125 "/></g></g></g><g fill="#202235" fill-opacity="1"><g transform="translate(145.06885, 328.205375)"><g><path d="M 2.421875 -20.046875 L 5.328125 -20.046875 L 12.140625 -3.40625 L 12.375 -3.40625 L 19.1875 -20.046875 L 22.078125 -20.046875 L 22.078125 0 L 19.8125 0 L 19.8125 -15.234375 L 19.609375 -15.234375 L 13.34375 0 L 11.15625 0 L 4.890625 -15.234375 L 4.703125 -15.234375 L 4.703125 0 L 2.421875 0 Z M 2.421875 -20.046875 "/></g></g></g><g fill="#202235" fill-opacity="1"><g transform="translate(176.688574, 328.205375)"><g><path d="M 2.421875 0 L 2.421875 -20.046875 L 14.53125 -20.046875 L 14.53125 -17.890625 L 4.859375 -17.890625 L 4.859375 -11.125 L 13.90625 -11.125 L 13.90625 -8.96875 L 4.859375 -8.96875 L 4.859375 -2.15625 L 14.6875 -2.15625 L 14.6875 0 Z M 2.421875 0 "/></g></g></g><g fill="#202235" fill-opacity="1"><g transform="translate(199.663439, 328.205375)"><g><path d="M 6.0625 0 L 0.59375 -20.046875 L 3.046875 -20.046875 L 7.25 -3.71875 L 7.4375 -3.71875 L 11.703125 -20.046875 L 14.453125 -20.046875 L 18.71875 -3.71875 L 18.90625 -3.71875 L 23.09375 -20.046875 L 25.5625 -20.046875 L 20.078125 0 L 17.578125 0 L 13.15625 -15.96875 L 13 -15.96875 L 8.578125 0 Z M 6.0625 0 "/></g></g></g><g fill="#202235" fill-opacity="1"><g transform="translate(232.300211, 328.205375)"><g><path d="M 19.34375 -10.015625 C 19.34375 -7.898438 18.957031 -6.070312 18.1875 -4.53125 C 17.425781 -3 16.378906 -1.8125 15.046875 -0.96875 C 13.722656 -0.132812 12.207031 0.28125 10.5 0.28125 C 8.78125 0.28125 7.253906 -0.132812 5.921875 -0.96875 C 4.597656 -1.8125 3.550781 -3 2.78125 -4.53125 C 2.019531 -6.070312 1.640625 -7.898438 1.640625 -10.015625 C 1.640625 -12.128906 2.019531 -13.957031 2.78125 -15.5 C 3.550781 -17.039062 4.597656 -18.226562 5.921875 -19.0625 C 7.253906 -19.894531 8.78125 -20.3125 10.5 -20.3125 C 12.207031 -20.3125 13.722656 -19.894531 15.046875 -19.0625 C 16.378906 -18.226562 17.425781 -17.039062 18.1875 -15.5 C 18.957031 -13.957031 19.34375 -12.128906 19.34375 -10.015625 Z M 16.984375 -10.015625 C 16.984375 -11.753906 16.695312 -13.21875 16.125 -14.40625 C 15.550781 -15.601562 14.769531 -16.507812 13.78125 -17.125 C 12.800781 -17.738281 11.707031 -18.046875 10.5 -18.046875 C 9.28125 -18.046875 8.175781 -17.738281 7.1875 -17.125 C 6.207031 -16.507812 5.429688 -15.601562 4.859375 -14.40625 C 4.285156 -13.21875 4 -11.753906 4 -10.015625 C 4 -8.285156 4.285156 -6.820312 4.859375 -5.625 C 5.429688 -4.4375 6.207031 -3.535156 7.1875 -2.921875 C 8.175781 -2.304688 9.28125 -2 10.5 -2 C 11.707031 -2 12.800781 -2.304688 13.78125 -2.921875 C 14.769531 -3.535156 15.550781 -4.4375 16.125 -5.625 C 16.695312 -6.820312 16.984375 -8.285156 16.984375 -10.015625 Z M 16.984375 -10.015625 "/></g></g></g><g fill="#202235" fill-opacity="1"><g transform="translate(259.773551, 328.205375)"><g><path d="M 2.421875 0 L 2.421875 -20.046875 L 9.203125 -20.046875 C 10.765625 -20.046875 12.046875 -19.78125 13.046875 -19.25 C 14.054688 -18.71875 14.800781 -17.988281 15.28125 -17.0625 C 15.769531 -16.132812 16.015625 -15.082031 16.015625 -13.90625 C 16.015625 -12.570312 15.707031 -11.410156 15.09375 -10.421875 C 14.488281 -9.429688 13.546875 -8.71875 12.265625 -8.28125 L 16.796875 0 L 13.984375 0 L 9.75 -7.84375 C 9.582031 -7.832031 9.410156 -7.828125 9.234375 -7.828125 L 4.859375 -7.828125 L 4.859375 0 Z M 4.859375 -10.015625 L 9.15625 -10.015625 C 10.757812 -10.015625 11.90625 -10.359375 12.59375 -11.046875 C 13.28125 -11.742188 13.625 -12.695312 13.625 -13.90625 C 13.625 -15.101562 13.28125 -16.066406 12.59375 -16.796875 C 11.90625 -17.523438 10.75 -17.890625 9.125 -17.890625 L 4.859375 -17.890625 Z M 4.859375 -10.015625 "/></g></g></g><g fill="#202235" fill-opacity="1"><g transform="translate(283.882799, 328.205375)"><g><path d="M 2.421875 0 L 2.421875 -20.046875 L 4.859375 -20.046875 L 4.859375 -10.09375 L 5.09375 -10.09375 L 14.09375 -20.046875 L 17.265625 -20.046875 L 8.84375 -11 L 17.265625 0 L 14.328125 0 L 7.359375 -9.3125 L 4.859375 -6.5 L 4.859375 0 Z M 2.421875 0 "/></g></g></g></svg>