<svg xmlns="http://www.w3.org/2000/svg" xmlns:xlink="http://www.w3.org/1999/xlink" width="1600" zoomAndPan="magnify" viewBox="0 0 1200 290.999983" height="388" preserveAspectRatio="xMidYMid meet" version="1.0"><defs><g/><clipPath id="cf7954afa4"><path d="M 150.433594 66 L 453 66 L 453 215 L 150.433594 215 Z M 150.433594 66 " clip-rule="nonzero"/></clipPath><clipPath id="372cf5b7b3"><path d="M 272 40.140625 L 483.113281 40.140625 L 483.113281 251.4375 L 272 251.4375 Z M 272 40.140625 " clip-rule="nonzero"/></clipPath></defs><g clip-path="url(#cf7954afa4)"><path fill="#edb641" d="M 277.972656 197.078125 C 291.414062 190.929688 303.085938 184.152344 312.648438 177.878906 C 330.933594 165.882812 354.304688 143.578125 355.589844 141.796875 L 347.023438 136.058594 L 339.605469 131.089844 L 363.085938 130.167969 L 370.632812 129.875 L 372.683594 122.589844 L 379.070312 99.921875 L 387.199219 122.019531 L 389.8125 129.121094 L 397.355469 128.828125 L 420.839844 127.90625 L 402.382812 142.484375 L 396.449219 147.167969 L 399.0625 154.269531 L 407.191406 176.367188 L 387.652344 163.28125 L 381.378906 159.074219 L 375.445312 163.757812 L 356.988281 178.335938 L 360.15625 167.070312 L 363.367188 155.667969 L 363.765625 154.253906 C 341.296875 171.109375 309.859375 187.355469 291.0625 193.359375 C 286.753906 194.738281 282.390625 195.976562 277.972656 197.078125 Z M 233.777344 214.335938 C 267.085938 213.03125 306.769531 204.546875 345.820312 179.636719 L 338.296875 206.359375 L 381.878906 171.9375 L 428.007812 202.84375 L 408.816406 150.664062 L 452.398438 116.246094 L 396.949219 118.417969 L 377.753906 66.242188 L 362.679688 119.761719 L 307.234375 121.933594 L 339.332031 143.4375 C 318.207031 162.695312 265.210938 203.761719 195.003906 206.515625 C 180.8125 207.074219 165.90625 206.0625 150.433594 202.988281 C 150.433594 202.988281 185.375 216.234375 233.777344 214.335938 " fill-opacity="1" fill-rule="nonzero"/></g><g clip-path="url(#372cf5b7b3)"><path fill="#edb641" d="M 377.886719 40.335938 C 319.773438 40.335938 272.660156 87.546875 272.660156 145.789062 C 272.660156 156.820312 274.355469 167.449219 277.488281 177.445312 C 282.0625 175.160156 286.4375 172.792969 290.597656 170.390625 C 288.40625 162.566406 287.234375 154.316406 287.234375 145.789062 C 287.234375 95.613281 327.820312 54.933594 377.886719 54.933594 C 427.957031 54.933594 468.542969 95.613281 468.542969 145.789062 C 468.542969 195.96875 427.957031 236.644531 377.886719 236.644531 C 350.734375 236.644531 326.371094 224.675781 309.757812 205.722656 C 304.929688 207.605469 300.035156 209.320312 295.082031 210.871094 C 314.347656 235.453125 344.277344 251.246094 377.886719 251.246094 C 436 251.246094 483.113281 204.03125 483.113281 145.789062 C 483.113281 87.546875 436 40.335938 377.886719 40.335938 " fill-opacity="1" fill-rule="nonzero"/></g><path fill="#edb641" d="M 224.386719 131.707031 L 230.195312 149.617188 L 248.984375 149.617188 L 233.78125 160.6875 L 239.589844 178.597656 L 224.386719 167.527344 L 209.183594 178.597656 L 214.988281 160.6875 L 199.789062 149.617188 L 218.578125 149.617188 L 224.386719 131.707031 " fill-opacity="1" fill-rule="nonzero"/><path fill="#edb641" d="M 251.429688 72.667969 L 256.4375 88.128906 L 272.660156 88.128906 L 259.539062 97.683594 L 264.550781 113.144531 L 251.429688 103.589844 L 238.300781 113.144531 L 243.316406 97.683594 L 230.195312 88.128906 L 246.414062 88.128906 L 251.429688 72.667969 " fill-opacity="1" fill-rule="nonzero"/><path fill="#edb641" d="M 168.605469 166.789062 L 171.53125 175.808594 L 180.996094 175.808594 L 173.339844 181.386719 L 176.261719 190.40625 L 168.605469 184.832031 L 160.949219 190.40625 L 163.871094 181.386719 L 156.214844 175.808594 L 165.679688 175.808594 L 168.605469 166.789062 " fill-opacity="1" fill-rule="nonzero"/><g fill="#202235" fill-opacity="1"><g transform="translate(543.688742, 154.084911)"><g><path d="M 5.90625 0 L 5.90625 -67.984375 L 20.28125 -67.984375 L 20.28125 -11.84375 L 49.4375 -11.84375 L 49.4375 0 Z M 5.90625 0 "/></g></g></g><g fill="#202235" fill-opacity="1"><g transform="translate(603.556213, 154.084911)"><g><path d="M 20.28125 -67.984375 L 20.28125 0 L 5.90625 0 L 5.90625 -67.984375 Z M 20.28125 -67.984375 "/></g></g></g><g fill="#202235" fill-opacity="1"><g transform="translate(636.604592, 154.084911)"><g><path d="M 3.3125 -56.140625 L 3.3125 -67.984375 L 59.15625 -67.984375 L 59.15625 -56.140625 L 38.34375 -56.140625 L 38.34375 0 L 24.140625 0 L 24.140625 -56.140625 Z M 3.3125 -56.140625 "/></g></g></g><g fill="#202235" fill-opacity="1"><g transform="translate(705.898598, 154.084911)"><g><path d="M 5.90625 0 L 5.90625 -67.984375 L 51.71875 -67.984375 L 51.71875 -56.140625 L 20.28125 -56.140625 L 20.28125 -39.9375 L 49.359375 -39.9375 L 49.359375 -28.078125 L 20.28125 -28.078125 L 20.28125 -11.84375 L 51.859375 -11.84375 L 51.859375 0 Z M 5.90625 0 "/></g></g></g><g fill="#202235" fill-opacity="1"><g transform="translate(769.981477, 154.084911)"><g><path d="M 42.796875 -48.4375 C 42.523438 -51.113281 41.375 -53.191406 39.34375 -54.671875 C 37.320312 -56.160156 34.597656 -56.90625 31.171875 -56.90625 C 27.648438 -56.90625 24.945312 -56.179688 23.0625 -54.734375 C 21.1875 -53.296875 20.25 -51.484375 20.25 -49.296875 C 20.207031 -46.859375 21.253906 -45.015625 23.390625 -43.765625 C 25.523438 -42.515625 28.0625 -41.546875 31 -40.859375 L 37.109375 -39.40625 C 41.054688 -38.519531 44.5625 -37.234375 47.625 -35.546875 C 50.6875 -33.867188 53.097656 -31.707031 54.859375 -29.0625 C 56.617188 -26.414062 57.5 -23.203125 57.5 -19.421875 C 57.476562 -13.203125 55.148438 -8.25 50.515625 -4.5625 C 45.878906 -0.875 39.410156 0.96875 31.109375 0.96875 C 22.847656 0.96875 16.257812 -0.910156 11.34375 -4.671875 C 6.4375 -8.441406 3.894531 -14 3.71875 -21.34375 L 17.625 -21.34375 C 17.875 -17.9375 19.21875 -15.375 21.65625 -13.65625 C 24.101562 -11.945312 27.195312 -11.09375 30.9375 -11.09375 C 34.59375 -11.09375 37.507812 -11.863281 39.6875 -13.40625 C 41.863281 -14.957031 42.960938 -16.972656 42.984375 -19.453125 C 42.960938 -21.753906 41.957031 -23.523438 39.96875 -24.765625 C 37.976562 -26.003906 35.132812 -27.066406 31.4375 -27.953125 L 24.03125 -29.8125 C 18.300781 -31.1875 13.773438 -33.363281 10.453125 -36.34375 C 7.140625 -39.332031 5.492188 -43.328125 5.515625 -48.328125 C 5.492188 -52.453125 6.59375 -56.054688 8.8125 -59.140625 C 11.039062 -62.222656 14.097656 -64.625 17.984375 -66.34375 C 21.878906 -68.0625 26.304688 -68.921875 31.265625 -68.921875 C 36.316406 -68.921875 40.726562 -68.054688 44.5 -66.328125 C 48.269531 -64.597656 51.207031 -62.195312 53.3125 -59.125 C 55.414062 -56.050781 56.5 -52.488281 56.5625 -48.4375 Z M 42.796875 -48.4375 "/></g></g></g><g fill="#202235" fill-opacity="1"><g transform="translate(838.014173, 154.084911)"><g><path d="M 3.3125 -56.140625 L 3.3125 -67.984375 L 59.15625 -67.984375 L 59.15625 -56.140625 L 38.34375 -56.140625 L 38.34375 0 L 24.140625 0 L 24.140625 -56.140625 Z M 3.3125 -56.140625 "/></g></g></g><g fill="#202235" fill-opacity="1"><g transform="translate(907.308168, 154.084911)"><g><path d="M 17.625 0 L 2.21875 0 L 25.6875 -67.984375 L 44.21875 -67.984375 L 67.65625 0 L 52.25 0 L 47.203125 -15.5 L 22.671875 -15.5 Z M 26.328125 -26.71875 L 43.59375 -26.71875 L 35.21875 -52.453125 L 34.6875 -52.453125 Z M 26.328125 -26.71875 "/></g></g></g><g fill="#202235" fill-opacity="1"><g transform="translate(984.037186, 154.084911)"><g><path d="M 5.90625 0 L 5.90625 -67.984375 L 32.734375 -67.984375 C 40.453125 -67.984375 46.441406 -65.96875 50.703125 -61.9375 C 54.960938 -57.914062 57.09375 -52.53125 57.09375 -45.78125 C 57.09375 -41.132812 56.054688 -37.160156 53.984375 -33.859375 C 51.921875 -30.566406 48.953125 -28.085938 45.078125 -26.421875 L 59.515625 0 L 43.65625 0 L 30.78125 -24.09375 L 20.28125 -24.09375 L 20.28125 0 Z M 20.28125 -35.65625 L 30.046875 -35.65625 C 38.210938 -35.65625 42.296875 -39.03125 42.296875 -45.78125 C 42.296875 -52.75 38.191406 -56.234375 29.984375 -56.234375 L 20.28125 -56.234375 Z M 20.28125 -35.65625 "/></g></g></g><g fill="#737373" fill-opacity="1"><g transform="translate(630.440378, 212.215453)"><g><path d="M 3.765625 0 L 3.765625 -31.109375 L 22.421875 -31.109375 L 22.421875 -27.765625 L 7.53125 -27.765625 L 7.53125 -17.25 L 21.015625 -17.25 L 21.015625 -13.90625 L 7.53125 -13.90625 L 7.53125 0 Z M 3.765625 0 "/></g></g></g><g fill="#737373" fill-opacity="1"><g transform="translate(665.614526, 212.215453)"><g><path d="M 24.171875 -31.109375 L 27.9375 -31.109375 L 27.9375 -10.515625 C 27.9375 -8.179688 27.382812 -6.1875 26.28125 -4.53125 C 25.175781 -2.882812 23.707031 -1.625 21.875 -0.75 C 20.050781 0.113281 18.046875 0.546875 15.859375 0.546875 C 13.671875 0.546875 11.660156 0.113281 9.828125 -0.75 C 7.992188 -1.625 6.523438 -2.882812 5.421875 -4.53125 C 4.316406 -6.1875 3.765625 -8.179688 3.765625 -10.515625 L 3.765625 -31.109375 L 7.53125 -31.109375 L 7.53125 -10.515625 C 7.53125 -8.890625 7.914062 -7.515625 8.6875 -6.390625 C 9.457031 -5.273438 10.472656 -4.425781 11.734375 -3.84375 C 13.003906 -3.269531 14.378906 -2.984375 15.859375 -2.984375 C 17.335938 -2.984375 18.707031 -3.269531 19.96875 -3.84375 C 21.238281 -4.425781 22.253906 -5.273438 23.015625 -6.390625 C 23.785156 -7.515625 24.171875 -8.890625 24.171875 -10.515625 Z M 24.171875 -31.109375 "/></g></g></g><g fill="#737373" fill-opacity="1"><g transform="translate(707.406593, 212.215453)"><g><path d="M 3.765625 0 L 3.765625 -31.109375 L 7.53125 -31.109375 L 7.53125 -3.34375 L 21.984375 -3.34375 L 21.984375 0 Z M 3.765625 0 "/></g></g></g><g fill="#737373" fill-opacity="1"><g transform="translate(741.548602, 212.215453)"><g><path d="M 3.765625 0 L 3.765625 -31.109375 L 7.53125 -31.109375 L 7.53125 -3.34375 L 21.984375 -3.34375 L 21.984375 0 Z M 3.765625 0 "/></g></g></g><g fill="#737373" fill-opacity="1"><g transform="translate(775.690611, 212.215453)"><g><path d="M 20.78125 -23.328125 C 20.59375 -24.867188 19.847656 -26.0625 18.546875 -26.90625 C 17.253906 -27.757812 15.671875 -28.1875 13.796875 -28.1875 C 11.722656 -28.1875 10.054688 -27.695312 8.796875 -26.71875 C 7.546875 -25.738281 6.921875 -24.503906 6.921875 -23.015625 C 6.921875 -21.910156 7.257812 -21.015625 7.9375 -20.328125 C 8.625 -19.640625 9.4375 -19.101562 10.375 -18.71875 C 11.3125 -18.34375 12.164062 -18.054688 12.9375 -17.859375 L 16.09375 -17.015625 C 16.90625 -16.796875 17.804688 -16.5 18.796875 -16.125 C 19.796875 -15.75 20.753906 -15.238281 21.671875 -14.59375 C 22.585938 -13.957031 23.34375 -13.132812 23.9375 -12.125 C 24.539062 -11.125 24.84375 -9.894531 24.84375 -8.4375 C 24.84375 -6.757812 24.40625 -5.242188 23.53125 -3.890625 C 22.65625 -2.535156 21.378906 -1.457031 19.703125 -0.65625 C 18.023438 0.144531 15.992188 0.546875 13.609375 0.546875 C 10.265625 0.546875 7.609375 -0.238281 5.640625 -1.8125 C 3.679688 -3.394531 2.613281 -5.460938 2.4375 -8.015625 L 6.3125 -8.015625 C 6.414062 -6.835938 6.8125 -5.867188 7.5 -5.109375 C 8.195312 -4.347656 9.078125 -3.78125 10.140625 -3.40625 C 11.210938 -3.039062 12.367188 -2.859375 13.609375 -2.859375 C 15.046875 -2.859375 16.335938 -3.09375 17.484375 -3.5625 C 18.628906 -4.03125 19.535156 -4.6875 20.203125 -5.53125 C 20.867188 -6.375 21.203125 -7.363281 21.203125 -8.5 C 21.203125 -9.53125 20.910156 -10.367188 20.328125 -11.015625 C 19.753906 -11.671875 18.992188 -12.203125 18.046875 -12.609375 C 17.109375 -13.015625 16.09375 -13.367188 15 -13.671875 L 11.171875 -14.765625 C 8.742188 -15.460938 6.820312 -16.457031 5.40625 -17.75 C 3.988281 -19.050781 3.28125 -20.75 3.28125 -22.84375 C 3.28125 -24.582031 3.753906 -26.101562 4.703125 -27.40625 C 5.648438 -28.707031 6.925781 -29.71875 8.53125 -30.4375 C 10.132812 -31.164062 11.925781 -31.53125 13.90625 -31.53125 C 15.914062 -31.53125 17.695312 -31.171875 19.25 -30.453125 C 20.8125 -29.742188 22.050781 -28.769531 22.96875 -27.53125 C 23.882812 -26.300781 24.367188 -24.898438 24.421875 -23.328125 Z M 20.78125 -23.328125 "/></g></g></g><g fill="#737373" fill-opacity="1"><g transform="translate(813.050497, 212.215453)"><g><path d="M 2.0625 -27.765625 L 2.0625 -31.109375 L 25.390625 -31.109375 L 25.390625 -27.765625 L 15.609375 -27.765625 L 15.609375 0 L 11.84375 0 L 11.84375 -27.765625 Z M 2.0625 -27.765625 "/></g></g></g><g fill="#737373" fill-opacity="1"><g transform="translate(850.592547, 212.215453)"><g><path d="M 5.046875 0 L 1.09375 0 L 12.515625 -31.109375 L 16.40625 -31.109375 L 27.828125 0 L 23.875 0 L 20.75 -8.8125 L 8.171875 -8.8125 Z M 9.359375 -12.15625 L 19.5625 -12.15625 L 14.578125 -26.1875 L 14.34375 -26.1875 Z M 9.359375 -12.15625 "/></g></g></g><g fill="#737373" fill-opacity="1"><g transform="translate(889.591725, 212.215453)"><g><path d="M 28.796875 -21.375 L 25.03125 -21.375 C 24.726562 -22.820312 24.144531 -24.035156 23.28125 -25.015625 C 22.414062 -25.992188 21.375 -26.734375 20.15625 -27.234375 C 18.945312 -27.742188 17.65625 -28 16.28125 -28 C 14.394531 -28 12.691406 -27.523438 11.171875 -26.578125 C 9.648438 -25.628906 8.441406 -24.226562 7.546875 -22.375 C 6.648438 -20.519531 6.203125 -18.242188 6.203125 -15.546875 C 6.203125 -12.859375 6.648438 -10.585938 7.546875 -8.734375 C 8.441406 -6.878906 9.648438 -5.472656 11.171875 -4.515625 C 12.691406 -3.566406 14.394531 -3.09375 16.28125 -3.09375 C 17.65625 -3.09375 18.945312 -3.34375 20.15625 -3.84375 C 21.375 -4.351562 22.414062 -5.097656 23.28125 -6.078125 C 24.144531 -7.066406 24.726562 -8.28125 25.03125 -9.71875 L 28.796875 -9.71875 C 28.410156 -7.59375 27.625 -5.769531 26.4375 -4.25 C 25.25 -2.738281 23.78125 -1.582031 22.03125 -0.78125 C 20.28125 0.0195312 18.363281 0.421875 16.28125 0.421875 C 13.625 0.421875 11.265625 -0.222656 9.203125 -1.515625 C 7.140625 -2.816406 5.515625 -4.660156 4.328125 -7.046875 C 3.140625 -9.429688 2.546875 -12.265625 2.546875 -15.546875 C 2.546875 -18.828125 3.140625 -21.660156 4.328125 -24.046875 C 5.515625 -26.441406 7.140625 -28.285156 9.203125 -29.578125 C 11.265625 -30.878906 13.625 -31.53125 16.28125 -31.53125 C 18.363281 -31.53125 20.28125 -31.125 22.03125 -30.3125 C 23.78125 -29.507812 25.25 -28.351562 26.4375 -26.84375 C 27.625 -25.332031 28.410156 -23.507812 28.796875 -21.375 Z M 28.796875 -21.375 "/></g></g></g><g fill="#737373" fill-opacity="1"><g transform="translate(930.77664, 212.215453)"><g><path d="M 3.765625 0 L 3.765625 -31.109375 L 7.53125 -31.109375 L 7.53125 -15.671875 L 7.890625 -15.671875 L 21.875 -31.109375 L 26.796875 -31.109375 L 13.734375 -17.0625 L 26.796875 0 L 22.234375 0 L 11.421875 -14.453125 L 7.53125 -10.078125 L 7.53125 0 Z M 3.765625 0 "/></g></g></g><path stroke-linecap="round" transform="matrix(0.000000000000000138, 2.254582, -2.247836, 0.000000000000000138, 511.24112, 40.14991)" fill="none" stroke-linejoin="miter" d="M 0.500063 0.500006 L 93.226153 0.500006 " stroke="#000000" stroke-width="1" stroke-opacity="1" stroke-miterlimit="4"/></svg>
