<svg xmlns="http://www.w3.org/2000/svg" xmlns:xlink="http://www.w3.org/1999/xlink" width="500" zoomAndPan="magnify" viewBox="0 0 375 374.999991" height="500" preserveAspectRatio="xMidYMid meet" version="1.0"><defs><g/><clipPath id="0f45308b59"><path d="M 50.769531 61 L 300 61 L 300 184 L 50.769531 184 Z M 50.769531 61 " clip-rule="nonzero"/></clipPath><clipPath id="ec4c879311"><path d="M 151 40.410156 L 324.519531 40.410156 L 324.519531 213.660156 L 151 213.660156 Z M 151 40.410156 " clip-rule="nonzero"/></clipPath></defs><rect x="-37.5" width="450" fill="#ffffff" y="-37.499999" height="449.999989" fill-opacity="1"/><rect x="-37.5" width="450" fill="#202235" y="-37.499999" height="449.999989" fill-opacity="1"/><g clip-path="url(#0f45308b59)"><path fill="#ffffff" d="M 155.71875 169.089844 C 166.777344 164.046875 176.382812 158.492188 184.25 153.347656 C 199.296875 143.511719 218.527344 125.222656 219.585938 123.761719 L 212.535156 119.058594 L 206.429688 114.980469 L 225.753906 114.226562 L 231.964844 113.984375 L 233.652344 108.011719 L 238.90625 89.425781 L 245.597656 107.546875 L 247.746094 113.367188 L 253.953125 113.125 L 273.277344 112.371094 L 258.089844 124.324219 L 253.207031 128.164062 L 255.359375 133.988281 L 262.046875 152.109375 L 245.96875 141.375 L 240.804688 137.929688 L 235.925781 141.769531 L 220.734375 153.722656 L 223.34375 144.484375 L 225.988281 135.136719 L 226.3125 133.976562 C 207.824219 147.796875 181.957031 161.117188 166.488281 166.039062 C 162.941406 167.171875 159.351562 168.183594 155.71875 169.089844 Z M 119.351562 183.242188 C 146.761719 182.171875 179.414062 175.214844 211.546875 154.789062 L 205.355469 176.699219 L 241.21875 148.476562 L 279.175781 173.816406 L 263.382812 131.035156 L 299.246094 102.808594 L 253.621094 104.59375 L 237.824219 61.808594 L 225.421875 105.691406 L 179.796875 107.476562 L 206.207031 125.105469 C 188.824219 140.894531 145.214844 174.570312 87.445312 176.828125 C 75.765625 177.285156 63.503906 176.453125 50.769531 173.933594 C 50.769531 173.933594 79.519531 184.796875 119.351562 183.242188 " fill-opacity="1" fill-rule="nonzero"/></g><g clip-path="url(#ec4c879311)"><path fill="#ffffff" d="M 237.933594 40.566406 C 190.113281 40.566406 151.347656 79.28125 151.347656 127.035156 C 151.347656 136.078125 152.738281 144.796875 155.320312 152.988281 C 159.085938 151.117188 162.683594 149.175781 166.105469 147.207031 C 164.300781 140.792969 163.335938 134.027344 163.335938 127.035156 C 163.335938 85.890625 196.734375 52.539062 237.933594 52.539062 C 279.132812 52.539062 312.53125 85.890625 312.53125 127.035156 C 312.53125 168.179688 279.132812 201.53125 237.933594 201.53125 C 215.589844 201.53125 195.542969 191.71875 181.871094 176.175781 C 177.898438 177.722656 173.871094 179.128906 169.796875 180.398438 C 185.652344 200.554688 210.277344 213.503906 237.933594 213.503906 C 285.753906 213.503906 324.519531 174.789062 324.519531 127.035156 C 324.519531 79.28125 285.753906 40.566406 237.933594 40.566406 " fill-opacity="1" fill-rule="nonzero"/></g><path fill="#ffffff" d="M 111.625 115.488281 L 116.402344 130.175781 L 131.863281 130.175781 L 119.355469 139.25 L 124.132812 153.9375 L 111.625 144.859375 L 99.113281 153.9375 L 103.890625 139.25 L 91.382812 130.175781 L 106.84375 130.175781 L 111.625 115.488281 " fill-opacity="1" fill-rule="nonzero"/><path fill="#ffffff" d="M 133.875 67.078125 L 138 79.757812 L 151.347656 79.757812 L 140.550781 87.589844 L 144.671875 100.269531 L 133.875 92.433594 L 123.074219 100.269531 L 127.199219 87.589844 L 116.402344 79.757812 L 129.75 79.757812 L 133.875 67.078125 " fill-opacity="1" fill-rule="nonzero"/><path fill="#ffffff" d="M 65.722656 144.253906 L 68.128906 151.652344 L 75.917969 151.652344 L 69.617188 156.222656 L 72.023438 163.621094 L 65.722656 159.046875 L 59.421875 163.621094 L 61.828125 156.222656 L 55.527344 151.652344 L 63.316406 151.652344 L 65.722656 144.253906 " fill-opacity="1" fill-rule="nonzero"/><g fill="#ffffff" fill-opacity="1"><g transform="translate(25.948093, 290.719023)"><g><path d="M 3.8125 0 L 3.8125 -43.796875 L 13.0625 -43.796875 L 13.0625 -7.640625 L 31.84375 -7.640625 L 31.84375 0 Z M 3.8125 0 "/></g></g></g><g fill="#ffffff" fill-opacity="1"><g transform="translate(64.506499, 290.719023)"><g><path d="M 13.0625 -43.796875 L 13.0625 0 L 3.8125 0 L 3.8125 -43.796875 Z M 13.0625 -43.796875 "/></g></g></g><g fill="#ffffff" fill-opacity="1"><g transform="translate(85.791728, 290.719023)"><g><path d="M 2.140625 -36.15625 L 2.140625 -43.796875 L 38.109375 -43.796875 L 38.109375 -36.15625 L 24.703125 -36.15625 L 24.703125 0 L 15.546875 0 L 15.546875 -36.15625 Z M 2.140625 -36.15625 "/></g></g></g><g fill="#ffffff" fill-opacity="1"><g transform="translate(130.421414, 290.719023)"><g><path d="M 3.8125 0 L 3.8125 -43.796875 L 33.3125 -43.796875 L 33.3125 -36.15625 L 13.0625 -36.15625 L 13.0625 -25.71875 L 31.796875 -25.71875 L 31.796875 -18.09375 L 13.0625 -18.09375 L 13.0625 -7.640625 L 33.40625 -7.640625 L 33.40625 0 Z M 3.8125 0 "/></g></g></g><g fill="#ffffff" fill-opacity="1"><g transform="translate(171.694808, 290.719023)"><g><path d="M 27.5625 -31.203125 C 27.394531 -32.921875 26.65625 -34.257812 25.34375 -35.21875 C 24.039062 -36.175781 22.285156 -36.65625 20.078125 -36.65625 C 17.816406 -36.65625 16.078125 -36.191406 14.859375 -35.265625 C 13.648438 -34.335938 13.046875 -33.164062 13.046875 -31.75 C 13.015625 -30.1875 13.6875 -29 15.0625 -28.1875 C 16.4375 -27.382812 18.070312 -26.765625 19.96875 -26.328125 L 23.90625 -25.390625 C 26.445312 -24.816406 28.703125 -23.988281 30.671875 -22.90625 C 32.648438 -21.820312 34.203125 -20.425781 35.328125 -18.71875 C 36.460938 -17.019531 37.03125 -14.953125 37.03125 -12.515625 C 37.019531 -8.503906 35.519531 -5.3125 32.53125 -2.9375 C 29.550781 -0.5625 25.382812 0.625 20.03125 0.625 C 14.71875 0.625 10.476562 -0.585938 7.3125 -3.015625 C 4.144531 -5.441406 2.503906 -9.019531 2.390625 -13.75 L 11.359375 -13.75 C 11.515625 -11.550781 12.378906 -9.898438 13.953125 -8.796875 C 15.523438 -7.691406 17.519531 -7.140625 19.9375 -7.140625 C 22.28125 -7.140625 24.15625 -7.640625 25.5625 -8.640625 C 26.96875 -9.640625 27.675781 -10.9375 27.6875 -12.53125 C 27.675781 -14.007812 27.03125 -15.148438 25.75 -15.953125 C 24.46875 -16.753906 22.632812 -17.4375 20.25 -18 L 15.484375 -19.203125 C 11.785156 -20.085938 8.867188 -21.488281 6.734375 -23.40625 C 4.597656 -25.332031 3.535156 -27.910156 3.546875 -31.140625 C 3.535156 -33.785156 4.242188 -36.101562 5.671875 -38.09375 C 7.109375 -40.082031 9.082031 -41.628906 11.59375 -42.734375 C 14.101562 -43.835938 16.953125 -44.390625 20.140625 -44.390625 C 23.390625 -44.390625 26.226562 -43.832031 28.65625 -42.71875 C 31.09375 -41.613281 32.988281 -40.066406 34.34375 -38.078125 C 35.695312 -36.097656 36.394531 -33.804688 36.4375 -31.203125 Z M 27.5625 -31.203125 "/></g></g></g><g fill="#ffffff" fill-opacity="1"><g transform="translate(215.512131, 290.719023)"><g><path d="M 2.140625 -36.15625 L 2.140625 -43.796875 L 38.109375 -43.796875 L 38.109375 -36.15625 L 24.703125 -36.15625 L 24.703125 0 L 15.546875 0 L 15.546875 -36.15625 Z M 2.140625 -36.15625 "/></g></g></g><g fill="#ffffff" fill-opacity="1"><g transform="translate(260.141809, 290.719023)"><g><path d="M 11.359375 0 L 1.4375 0 L 16.546875 -43.796875 L 28.484375 -43.796875 L 43.578125 0 L 33.65625 0 L 30.40625 -9.984375 L 14.609375 -9.984375 Z M 16.953125 -17.21875 L 28.078125 -17.21875 L 22.6875 -33.78125 L 22.34375 -33.78125 Z M 16.953125 -17.21875 "/></g></g></g><g fill="#ffffff" fill-opacity="1"><g transform="translate(309.560109, 290.719023)"><g><path d="M 3.8125 0 L 3.8125 -43.796875 L 21.078125 -43.796875 C 26.054688 -43.796875 29.914062 -42.5 32.65625 -39.90625 C 35.40625 -37.3125 36.78125 -33.835938 36.78125 -29.484375 C 36.78125 -26.492188 36.113281 -23.9375 34.78125 -21.8125 C 33.445312 -19.6875 31.535156 -18.085938 29.046875 -17.015625 L 38.34375 0 L 28.125 0 L 19.828125 -15.53125 L 13.0625 -15.53125 L 13.0625 0 Z M 13.0625 -22.96875 L 19.359375 -22.96875 C 24.617188 -22.96875 27.25 -25.140625 27.25 -29.484375 C 27.25 -33.972656 24.601562 -36.21875 19.3125 -36.21875 L 13.0625 -36.21875 Z M 13.0625 -22.96875 "/></g></g></g><g fill="#ffffff" fill-opacity="1"><g transform="translate(73.209517, 328.158742)"><g><path d="M 2.421875 0 L 2.421875 -20.03125 L 14.4375 -20.03125 L 14.4375 -17.875 L 4.859375 -17.875 L 4.859375 -11.109375 L 13.53125 -11.109375 L 13.53125 -8.953125 L 4.859375 -8.953125 L 4.859375 0 Z M 2.421875 0 "/></g></g></g><g fill="#ffffff" fill-opacity="1"><g transform="translate(95.863875, 328.158742)"><g><path d="M 2.421875 0 L 2.421875 -20.03125 L 9.203125 -20.03125 C 10.765625 -20.03125 12.046875 -19.765625 13.046875 -19.234375 C 14.054688 -18.703125 14.800781 -17.972656 15.28125 -17.046875 C 15.757812 -16.117188 16 -15.066406 16 -13.890625 C 16 -12.554688 15.691406 -11.394531 15.078125 -10.40625 C 14.472656 -9.425781 13.53125 -8.71875 12.25 -8.28125 L 16.78125 0 L 13.96875 0 L 9.75 -7.828125 C 9.582031 -7.828125 9.410156 -7.828125 9.234375 -7.828125 L 4.859375 -7.828125 L 4.859375 0 Z M 4.859375 -10.015625 L 9.15625 -10.015625 C 10.757812 -10.015625 11.898438 -10.359375 12.578125 -11.046875 C 13.265625 -11.742188 13.609375 -12.691406 13.609375 -13.890625 C 13.609375 -15.097656 13.265625 -16.0625 12.578125 -16.78125 C 11.890625 -17.507812 10.734375 -17.875 9.109375 -17.875 L 4.859375 -17.875 Z M 4.859375 -10.015625 "/></g></g></g><g fill="#ffffff" fill-opacity="1"><g transform="translate(119.965084, 328.158742)"><g><path d="M 3.25 0 L 0.703125 0 L 8.0625 -20.03125 L 10.5625 -20.03125 L 17.921875 0 L 15.375 0 L 13.359375 -5.671875 L 5.265625 -5.671875 Z M 6.03125 -7.828125 L 12.59375 -7.828125 L 9.390625 -16.859375 L 9.234375 -16.859375 Z M 6.03125 -7.828125 "/></g></g></g><g fill="#ffffff" fill-opacity="1"><g transform="translate(145.083, 328.158742)"><g><path d="M 2.421875 -20.03125 L 5.328125 -20.03125 L 12.125 -3.40625 L 12.359375 -3.40625 L 19.171875 -20.03125 L 22.0625 -20.03125 L 22.0625 0 L 19.796875 0 L 19.796875 -15.21875 L 19.609375 -15.21875 L 13.34375 0 L 11.15625 0 L 4.890625 -15.21875 L 4.703125 -15.21875 L 4.703125 0 L 2.421875 0 Z M 2.421875 -20.03125 "/></g></g></g><g fill="#ffffff" fill-opacity="1"><g transform="translate(176.69218, 328.158742)"><g><path d="M 2.421875 0 L 2.421875 -20.03125 L 14.515625 -20.03125 L 14.515625 -17.875 L 4.859375 -17.875 L 4.859375 -11.109375 L 13.890625 -11.109375 L 13.890625 -8.953125 L 4.859375 -8.953125 L 4.859375 -2.15625 L 14.671875 -2.15625 L 14.671875 0 Z M 2.421875 0 "/></g></g></g><g fill="#ffffff" fill-opacity="1"><g transform="translate(199.659385, 328.158742)"><g><path d="M 6.0625 0 L 0.59375 -20.03125 L 3.046875 -20.03125 L 7.234375 -3.71875 L 7.4375 -3.71875 L 11.703125 -20.03125 L 14.4375 -20.03125 L 18.703125 -3.71875 L 18.90625 -3.71875 L 23.09375 -20.03125 L 25.546875 -20.03125 L 20.078125 0 L 17.5625 0 L 13.140625 -15.96875 L 12.984375 -15.96875 L 8.5625 0 Z M 6.0625 0 "/></g></g></g><g fill="#ffffff" fill-opacity="1"><g transform="translate(232.285273, 328.158742)"><g><path d="M 19.328125 -10.015625 C 19.328125 -7.898438 18.945312 -6.070312 18.1875 -4.53125 C 17.425781 -3 16.378906 -1.8125 15.046875 -0.96875 C 13.710938 -0.132812 12.191406 0.28125 10.484375 0.28125 C 8.773438 0.28125 7.253906 -0.132812 5.921875 -0.96875 C 4.597656 -1.8125 3.550781 -3 2.78125 -4.53125 C 2.019531 -6.070312 1.640625 -7.898438 1.640625 -10.015625 C 1.640625 -12.128906 2.019531 -13.953125 2.78125 -15.484375 C 3.550781 -17.023438 4.597656 -18.210938 5.921875 -19.046875 C 7.253906 -19.890625 8.773438 -20.3125 10.484375 -20.3125 C 12.191406 -20.3125 13.710938 -19.890625 15.046875 -19.046875 C 16.378906 -18.210938 17.425781 -17.023438 18.1875 -15.484375 C 18.945312 -13.953125 19.328125 -12.128906 19.328125 -10.015625 Z M 16.984375 -10.015625 C 16.984375 -11.753906 16.691406 -13.21875 16.109375 -14.40625 C 15.535156 -15.601562 14.757812 -16.503906 13.78125 -17.109375 C 12.800781 -17.722656 11.703125 -18.03125 10.484375 -18.03125 C 9.273438 -18.03125 8.175781 -17.722656 7.1875 -17.109375 C 6.207031 -16.503906 5.425781 -15.601562 4.84375 -14.40625 C 4.269531 -13.21875 3.984375 -11.753906 3.984375 -10.015625 C 3.984375 -8.285156 4.269531 -6.820312 4.84375 -5.625 C 5.425781 -4.425781 6.207031 -3.519531 7.1875 -2.90625 C 8.175781 -2.300781 9.273438 -2 10.484375 -2 C 11.703125 -2 12.800781 -2.300781 13.78125 -2.90625 C 14.757812 -3.519531 15.535156 -4.425781 16.109375 -5.625 C 16.691406 -6.820312 16.984375 -8.285156 16.984375 -10.015625 Z M 16.984375 -10.015625 "/></g></g></g><g fill="#ffffff" fill-opacity="1"><g transform="translate(259.749452, 328.158742)"><g><path d="M 2.421875 0 L 2.421875 -20.03125 L 9.203125 -20.03125 C 10.765625 -20.03125 12.046875 -19.765625 13.046875 -19.234375 C 14.054688 -18.703125 14.800781 -17.972656 15.28125 -17.046875 C 15.757812 -16.117188 16 -15.066406 16 -13.890625 C 16 -12.554688 15.691406 -11.394531 15.078125 -10.40625 C 14.472656 -9.425781 13.53125 -8.71875 12.25 -8.28125 L 16.78125 0 L 13.96875 0 L 9.75 -7.828125 C 9.582031 -7.828125 9.410156 -7.828125 9.234375 -7.828125 L 4.859375 -7.828125 L 4.859375 0 Z M 4.859375 -10.015625 L 9.15625 -10.015625 C 10.757812 -10.015625 11.898438 -10.359375 12.578125 -11.046875 C 13.265625 -11.742188 13.609375 -12.691406 13.609375 -13.890625 C 13.609375 -15.097656 13.265625 -16.0625 12.578125 -16.78125 C 11.890625 -17.507812 10.734375 -17.875 9.109375 -17.875 L 4.859375 -17.875 Z M 4.859375 -10.015625 "/></g></g></g><g fill="#ffffff" fill-opacity="1"><g transform="translate(283.85066, 328.158742)"><g><path d="M 2.421875 0 L 2.421875 -20.03125 L 4.859375 -20.03125 L 4.859375 -10.09375 L 5.09375 -10.09375 L 14.09375 -20.03125 L 17.25 -20.03125 L 8.84375 -11 L 17.25 0 L 14.328125 0 L 7.359375 -9.3125 L 4.859375 -6.5 L 4.859375 0 Z M 2.421875 0 "/></g></g></g></svg>
